<svg viewBox="0 0 632 582" fill="none" xmlns="http://www.w3.org/2000/svg" stroke-linejoin="round" stroke-linecap="round" color="#0a0a0a">
<style>
  @media (prefers-color-scheme: dark) {
    svg { color: #fafafa; }
  }
</style>
<path d="M387.502 529.084C326.502 529.084 354.931 582 320.844 582C286.756 582 304.82 529.084 246.161 529.084C187.502 529.084 286.756 490 320.844 490C354.931 490 448.502 529.084 387.502 529.084Z" fill="currentColor"/>
<path d="M103.772 22.308C132.176 15.6014 166.425 14.1381 199.75 16.7338C233.092 19.3308 264.424 25.9051 286.952 34.557C298.292 38.9122 306.577 43.4835 311.738 47.7289C314.278 49.8178 315.671 51.5119 316.373 52.6693C316.708 53.2214 316.849 53.5917 316.907 53.7816C316.936 53.8764 316.947 53.9358 316.951 53.9633C316.953 53.9775 316.955 53.9868 316.955 53.9916V450.134C316.212 450.773 315.045 451.655 313.306 452.737C307.749 456.192 298.969 460.098 287.247 464.135C264.014 472.136 232.143 479.668 198.807 485.306C165.505 490.938 131.431 494.563 103.879 494.978C90.0672 495.186 78.3388 494.579 69.3564 493.166C64.874 492.461 61.3907 491.603 58.8281 490.697C57.5652 490.25 56.6408 489.832 55.9941 489.484C55.6765 489.313 55.4488 489.171 55.2959 489.067C55.146 488.965 55.0818 488.909 55.082 488.91C55.1912 489.006 54.1675 488.022 52.4551 484.544C50.8661 481.317 49.1279 476.865 47.3184 471.12C43.7037 459.646 40.1853 444.247 36.9668 425.823C30.5428 389.049 25.5506 341.613 23.1211 292.407C20.6914 243.196 20.8474 192.655 24.5859 149.632C28.4014 105.724 35.7589 72.4545 45.9648 55.5834C54.9852 40.6722 74.8147 29.1453 103.772 22.308Z" stroke="currentColor" stroke-width="31"/>
<path d="M91.6003 139.046C144.961 116.873 131.252 122.741 192.941 121.899C254.63 121.057 265.243 133.31 254.295 148.998C243.347 164.687 146.077 140.286 105.553 170.528C65.0293 200.77 38.2398 161.218 91.6003 139.046Z" fill="currentColor"/>
<path d="M99.6181 245.874C152.44 222.448 138.874 228.638 200.526 226.34C262.178 224.041 273.077 236.04 262.503 251.983C251.928 267.926 154.109 245.829 114.31 277.019C74.5117 308.209 46.796 269.301 99.6181 245.874Z" fill="currentColor"/>
<path d="M124.321 358.884C174.733 330.641 150.675 352.268 200.526 338.099C250.376 323.931 262.26 347.593 253.215 364.451C244.171 381.309 196.623 358.336 141.85 388.525C87.0765 418.715 73.9099 387.127 124.321 358.884Z" fill="currentColor"/>
<path d="M274.5 24.5099L324.558 76.2612C324.558 76.2612 302.589 125.905 302.589 97.9055C302.589 69.9055 281.799 44.7529 247.694 39.3292C213.589 33.9055 274.5 24.5099 274.5 24.5099Z" fill="currentColor"/>
<path d="M354.436 52.0681C322.372 69.1361 321 63.5 294.5 48.5C268 33.5 238.5 10 284.308 16.1914C330.116 22.3828 309.616 20.3876 354.308 15.9438C399 11.5 386.5 35 354.436 52.0681Z" fill="currentColor"/>
<path d="M533.683 22.2832C505.279 15.5766 471.03 14.1133 437.705 16.709C404.363 19.306 373.031 25.8803 350.503 34.5322C339.163 38.8875 330.878 43.4587 325.717 47.7041C323.178 49.793 321.784 51.4871 321.082 52.6445C320.747 53.1966 320.606 53.5669 320.548 53.7568C320.519 53.8517 320.508 53.911 320.504 53.9385C320.502 53.9527 320.5 53.9621 320.5 53.9668V450.109C321.243 450.748 322.41 451.63 324.149 452.712C329.706 456.167 338.486 460.074 350.208 464.11C373.441 472.111 405.313 479.644 438.648 485.281C471.95 490.913 506.024 494.538 533.576 494.953C547.388 495.161 559.116 494.554 568.099 493.142C572.581 492.437 576.064 491.578 578.627 490.672C579.89 490.225 580.814 489.807 581.461 489.459C581.779 489.288 582.006 489.146 582.159 489.042C582.309 488.94 582.373 488.885 582.373 488.885C582.264 488.981 583.288 487.997 585 484.52C586.589 481.292 588.327 476.84 590.137 471.096C593.751 459.621 597.27 444.222 600.488 425.798C606.912 389.024 611.904 341.589 614.334 292.382C616.764 243.171 616.608 192.63 612.869 149.607C609.054 105.699 601.696 72.4297 591.49 55.5586C582.47 40.6474 562.64 29.1206 533.683 22.2832Z" stroke="currentColor" stroke-width="31"/>
<path d="M545.685 138.913C492.293 116.816 506.01 122.665 444.32 121.91C382.63 121.155 372.034 133.423 383.004 149.096C393.975 164.769 491.21 140.231 531.777 170.416C572.343 200.6 599.077 161.011 545.685 138.913Z" fill="currentColor"/>
<path d="M537.818 245.753C484.963 222.401 498.538 228.573 436.883 226.362C375.228 224.15 364.345 236.165 374.943 252.093C385.54 268.02 483.328 245.785 523.17 276.918C563.013 308.052 590.674 269.105 537.818 245.753Z" fill="currentColor"/>
<path d="M513.117 358.77C462.665 330.599 486.754 352.191 436.883 338.093C387.012 323.995 375.163 347.674 384.231 364.52C393.3 381.365 440.815 358.324 495.631 388.436C550.446 418.548 563.568 386.941 513.117 358.77Z" fill="currentColor"/>
<path d="M362.955 24.4851L312.897 76.2364C312.897 76.2364 334.866 125.881 334.866 97.8807C334.866 69.8807 355.656 44.7281 389.761 39.3044C423.866 33.8807 362.955 24.4851 362.955 24.4851Z" fill="currentColor"/>
</svg>
